#N canvas 58 192 620 460 10;
#X declare -lib Gem;
#X obj 8 10 cnv 15 400 40 empty empty exercise 20 12 0 24 -228992 -66577
0;
#X obj 465 16 gemwin_control;
#X obj 466 60 import Gem;
#X text 14 68 EXERCISE:;
#X text 14 92 Build a patch that allows you to move an object around
the Gem windows and change its color.;
#X obj 192 201 gemhead;
#X obj 190 172 tgl 15 0 empty empty empty 17 7 0 10 -262144 -1 -1 0
1;
#X obj 182 367 sphere;
#X obj 260 208 hsl 128 15 0 1 0 0 empty empty empty -2 -8 0 10 -262144
-1 -1 6900 1;
#X obj 264 227 hsl 128 15 0 1 0 0 empty empty empty -2 -8 0 10 -262144
-1 -1 7200 1;
#X obj 266 248 hsl 128 15 0 1 0 0 empty empty empty -2 -8 0 10 -262144
-1 -1 1700 1;
#X obj 282 265 hsl 128 15 0 360 0 0 empty empty empty -2 -8 0 10 -262144
-1 -1 6900 1;
#X obj 282 282 hsl 128 15 0 360 0 0 empty empty empty -2 -8 0 10 -262144
-1 -1 12700 1;
#X obj 281 301 hsl 128 15 0 360 0 0 empty empty empty -2 -8 0 10 -262144
-1 -1 0 1;
#X obj 191 291 rotateXYZ;
#X obj 181 336 translateXYZ;
#X obj 278 332 hsl 128 15 -2 2 0 0 empty empty empty -2 -8 0 10 -262144
-1 -1 8600 1;
#X obj 285 351 hsl 128 15 -2 2 0 0 empty empty empty -2 -8 0 10 -262144
-1 -1 5400 1;
#X obj 286 366 hsl 128 15 -2 2 0 0 empty empty empty -2 -8 0 10 -262144
-1 -1 2000 1;
#X obj 203 251 colorRGB;
#X connect 5 0 19 0;
#X connect 6 0 5 0;
#X connect 8 0 19 1;
#X connect 9 0 19 2;
#X connect 10 0 19 4;
#X connect 11 0 14 1;
#X connect 12 0 14 2;
#X connect 13 0 14 3;
#X connect 14 0 15 0;
#X connect 15 0 7 0;
#X connect 16 0 15 1;
#X connect 17 0 15 2;
#X connect 18 0 15 3;
#X connect 19 0 14 0;
